HIERARCHY
ROOT Hips
{
	OFFSET 0.000000 83.214638 0.000000
	CHANNELS 6 Xposition Yposition Zposition Xrotation Yrotation Zrotation
	JOINT Pelvis
	{
		OFFSET 0.000000 0.000000 0.000000
		CHANNELS 3 Xrotation Yrotation Zrotation
		JOINT LeftUpLeg
		{
			OFFSET 8.479700 -4.795502 -0.379100
			CHANNELS 3 Xrotation Yrotation Zrotation
			JOINT LeftLeg
			{
				OFFSET 0.024144 -32.555107 0.112900
				CHANNELS 3 Xrotation Yrotation Zrotation
				JOINT LeftFoot
				{
					OFFSET -0.024144 -32.638630 -3.012600
					CHANNELS 3 Xrotation Yrotation Zrotation
					JOINT LeftToeBase
					{
						OFFSET 0.970200 -13.225400 11.864200
						CHANNELS 3 Xrotation Yrotation Zrotation
						End Site
						{
							OFFSET 0.000000 12.319262 0.000000
						}
					}
					JOINT LFootTongue
					{
						OFFSET 1.142400 -1.059800 6.665200
						CHANNELS 3 Xrotation Yrotation Zrotation
						End Site
						{
							OFFSET 0.000000 12.319262 0.000000
						}
					}
				}
				JOINT LeftPantLeg
				{
					OFFSET 0.918482 -16.533964 -2.284700
					CHANNELS 3 Xrotation Yrotation Zrotation
					End Site
					{
						OFFSET 0.350399 24.744368 0.000000
					}
				}
			}
		}
		JOINT RightUpLeg
		{
			OFFSET -8.479700 -4.795502 -0.379100
			CHANNELS 3 Xrotation Yrotation Zrotation
			JOINT RightLeg
			{
				OFFSET -0.023144 -32.555092 0.112900
				CHANNELS 3 Xrotation Yrotation Zrotation
				JOINT RightFoot
				{
					OFFSET 0.023144 -32.638641 -3.012700
					CHANNELS 3 Xrotation Yrotation Zrotation
					JOINT RightToeBase
					{
						OFFSET -0.970200 -13.225400 11.864200
						CHANNELS 3 Xrotation Yrotation Zrotation
						End Site
						{
							OFFSET 0.000000 12.319244 0.000000
						}
					}
					JOINT RFootTongue
					{
						OFFSET -1.142200 -1.059800 6.665200
						CHANNELS 3 Xrotation Yrotation Zrotation
						End Site
						{
							OFFSET 0.000000 12.319243 0.000000
						}
					}
				}
				JOINT RightPantLeg
				{
					OFFSET -0.919482 -16.533978 -2.284800
					CHANNELS 3 Xrotation Yrotation Zrotation
					End Site
					{
						OFFSET -0.350400 24.744419 0.000000
					}
				}
			}
		}
	}
	JOINT Spine
	{
		OFFSET 0.000000 7.722000 1.166200
		CHANNELS 3 Xrotation Yrotation Zrotation
		JOINT Spine1
		{
			OFFSET 0.000000 12.024101 0.248800
			CHANNELS 3 Xrotation Yrotation Zrotation
			JOINT Spine2
			{
				OFFSET 0.000000 11.502998 -0.491200
				CHANNELS 3 Xrotation Yrotation Zrotation
				JOINT Neck
				{
					OFFSET 0.000000 18.430702 -3.123100
					CHANNELS 3 Xrotation Yrotation Zrotation
					JOINT Head
					{
						OFFSET 0.000000 9.051102 1.034000
						CHANNELS 3 Xrotation Yrotation Zrotation
						JOINT HairB
						{
							OFFSET 0.208400 24.786102 24.822300
							CHANNELS 3 Xrotation Yrotation Zrotation
							End Site
							{
								OFFSET 0.000000 32.263779 0.000000
							}
						}
						JOINT HairA
						{
							OFFSET -7.081100 24.428299 23.196600
							CHANNELS 3 Xrotation Yrotation Zrotation
							End Site
							{
								OFFSET 0.000000 32.263779 0.000000
							}
						}
						JOINT Hat
						{
							OFFSET 16.728800 15.048294 -15.439601
							CHANNELS 3 Xrotation Yrotation Zrotation
							End Site
							{
								OFFSET 0.000000 32.263779 0.000000
							}
						}
					}
				}
				JOINT LeftShoulder
				{
					OFFSET 6.197800 13.665199 -4.064700
					CHANNELS 3 Xrotation Yrotation Zrotation
					JOINT LeftArm
					{
						OFFSET 7.778100 -0.187103 -1.709300
						CHANNELS 3 Xrotation Yrotation Zrotation
						JOINT LeftForeArm
						{
							OFFSET 22.049376 0.000000 0.000000
							CHANNELS 3 Xrotation Yrotation Zrotation
							JOINT LeftHand
							{
								OFFSET 23.009392 0.000000 0.000000
								CHANNELS 3 Xrotation Yrotation Zrotation
								JOINT LeftHandThumb1
								{
									OFFSET 3.507191 -2.063065 3.133727
									CHANNELS 3 Xrotation Yrotation Zrotation
									JOINT LeftHandThumb2
									{
										OFFSET 3.101337 -1.790558 1.790558
										CHANNELS 3 Xrotation Yrotation Zrotation
										JOINT LeftHandThumb3
										{
											OFFSET 3.058640 -1.765907 1.765906
											CHANNELS 3 Xrotation Yrotation Zrotation
											End Site
											{
												OFFSET -0.415260 3.926476 -0.049563
											}
										}
									}
								}
								JOINT LeftHandIndex1
								{
									OFFSET 11.334419 -0.901459 3.706815
									CHANNELS 3 Xrotation Yrotation Zrotation
									JOINT LeftHandIndex2
									{
										OFFSET 3.283112 0.000000 0.000000
										CHANNELS 3 Xrotation Yrotation Zrotation
										JOINT LeftHandIndex3
										{
											OFFSET 3.323853 0.000000 0.000000
											CHANNELS 3 Xrotation Yrotation Zrotation
											End Site
											{
												OFFSET -1.135597 3.097809 0.402452
											}
										}
									}
								}
								JOINT LeftHandMiddle1
								{
									OFFSET 11.335861 0.000000 0.000000
									CHANNELS 3 Xrotation Yrotation Zrotation
									JOINT LeftHandMiddle2
									{
										OFFSET 3.410492 0.000000 0.000000
										CHANNELS 3 Xrotation Yrotation Zrotation
										JOINT LeftHandMiddle3
										{
											OFFSET 3.312172 0.000000 0.000000
											CHANNELS 3 Xrotation Yrotation Zrotation
											End Site
											{
												OFFSET -1.150200 3.080154 0.400270
											}
										}
									}
								}
								JOINT LeftHandRing1
								{
									OFFSET 11.514786 -0.013176 -3.003090
									CHANNELS 3 Xrotation Yrotation Zrotation
									JOINT LeftHandRing2
									{
										OFFSET 3.053307 0.000000 0.000000
										CHANNELS 3 Xrotation Yrotation Zrotation
										JOINT LeftHandRing3
										{
											OFFSET 3.295807 0.000000 0.000000
											CHANNELS 3 Xrotation Yrotation Zrotation
											End Site
											{
												OFFSET -1.281006 3.013344 0.375733
											}
										}
									}
								}
								JOINT LeftHandPinky1
								{
									OFFSET 10.518692 -0.960396 -5.730441
									CHANNELS 3 Xrotation Yrotation Zrotation
									JOINT LeftHandPinky2
									{
										OFFSET 2.861649 0.000000 0.000000
										CHANNELS 3 Xrotation Yrotation Zrotation
										JOINT LeftHandPinky3
										{
											OFFSET 2.863380 0.000000 0.000000
											CHANNELS 3 Xrotation Yrotation Zrotation
											End Site
											{
												OFFSET -0.843597 2.711159 0.369971
											}
										}
									}
								}
							}
							JOINT LSleeve
							{
								OFFSET 6.676277 -0.344902 -1.011730
								CHANNELS 3 Xrotation Yrotation Zrotation
								End Site
								{
									OFFSET 0.000000 14.885353 0.000000
								}
							}
						}
					}
				}
				JOINT RightShoulder
				{
					OFFSET -6.197800 13.665199 -4.064700
					CHANNELS 3 Xrotation Yrotation Zrotation
					JOINT RightArm
					{
						OFFSET -7.778100 -0.187103 -1.709300
						CHANNELS 3 Xrotation Yrotation Zrotation
						JOINT RightForeArm
						{
							OFFSET -22.049376 0.000000 0.000000
							CHANNELS 3 Xrotation Yrotation Zrotation
							JOINT RightHand
							{
								OFFSET -23.009392 0.000000 0.000000
								CHANNELS 3 Xrotation Yrotation Zrotation
								JOINT RightHandThumb1
								{
									OFFSET -3.507191 -2.063065 3.133727
									CHANNELS 3 Xrotation Yrotation Zrotation
									JOINT RightHandThumb2
									{
										OFFSET -3.101337 -1.790558 1.790558
										CHANNELS 3 Xrotation Yrotation Zrotation
										JOINT RightHandThumb3
										{
											OFFSET -3.058640 -1.765907 1.765906
											CHANNELS 3 Xrotation Yrotation Zrotation
											End Site
											{
												OFFSET 0.415260 3.926476 -0.049563
											}
										}
									}
								}
								JOINT RightHandIndex1
								{
									OFFSET -11.334419 -0.901459 3.706815
									CHANNELS 3 Xrotation Yrotation Zrotation
									JOINT RightHandIndex2
									{
										OFFSET -3.283112 0.000000 0.000000
										CHANNELS 3 Xrotation Yrotation Zrotation
										JOINT RightHandIndex3
										{
											OFFSET -3.323853 0.000000 0.000000
											CHANNELS 3 Xrotation Yrotation Zrotation
											End Site
											{
												OFFSET 1.135597 3.097809 0.402452
											}
										}
									}
								}
								JOINT RightHandMiddle1
								{
									OFFSET -11.335861 0.000000 0.000000
									CHANNELS 3 Xrotation Yrotation Zrotation
									JOINT RightHandMiddle2
									{
										OFFSET -3.410492 0.000000 0.000000
										CHANNELS 3 Xrotation Yrotation Zrotation
										JOINT RightHandMiddle3
										{
											OFFSET -3.312172 0.000000 0.000000
											CHANNELS 3 Xrotation Yrotation Zrotation
											End Site
											{
												OFFSET 1.150200 3.080154 0.400270
											}
										}
									}
								}
								JOINT RightHandRing1
								{
									OFFSET -11.514786 -0.013176 -3.003090
									CHANNELS 3 Xrotation Yrotation Zrotation
									JOINT RightHandRing2
									{
										OFFSET -3.053307 0.000000 0.000000
										CHANNELS 3 Xrotation Yrotation Zrotation
										JOINT RightHandRing3
										{
											OFFSET -3.295807 0.000000 0.000000
											CHANNELS 3 Xrotation Yrotation Zrotation
											End Site
											{
												OFFSET 1.281006 3.013344 0.375733
											}
										}
									}
								}
								JOINT RightHandPinky1
								{
									OFFSET -10.518692 -0.960396 -5.730441
									CHANNELS 3 Xrotation Yrotation Zrotation
									JOINT RightHandPinky2
									{
										OFFSET -2.861649 0.000000 0.000000
										CHANNELS 3 Xrotation Yrotation Zrotation
										JOINT RightHandPinky3
										{
											OFFSET -2.863380 0.000000 0.000000
											CHANNELS 3 Xrotation Yrotation Zrotation
											End Site
											{
												OFFSET 0.843597 2.711159 0.369971
											}
										}
									}
								}
							}
							JOINT RSleeve
							{
								OFFSET -6.676277 -0.344902 -1.011730
								CHANNELS 3 Xrotation Yrotation Zrotation
								End Site
								{
									OFFSET 0.000000 14.885353 0.000000
								}
							}
						}
					}
				}
				JOINT Backpack
				{
					OFFSET 0.000000 -2.471497 36.677502
					CHANNELS 3 Xrotation Yrotation Zrotation
					End Site
					{
						OFFSET 0.000000 20.427315 0.000000
					}
				}
				JOINT Hood
				{
					OFFSET 0.000000 18.754097 -10.431000
					CHANNELS 3 Xrotation Yrotation Zrotation
					JOINT Hood1
					{
						OFFSET 0.000000 -5.011002 -7.685901
						CHANNELS 3 Xrotation Yrotation Zrotation
						End Site
						{
							OFFSET 0.000000 9.175140 0.000000
						}
					}
				}
				JOINT LHoodieString
				{
					OFFSET 5.250500 16.397697 3.089900
					CHANNELS 3 Xrotation Yrotation Zrotation
					JOINT LHoodieString1
					{
						OFFSET 0.257700 -6.364304 3.694600
						CHANNELS 3 Xrotation Yrotation Zrotation
						JOINT LHoodieString2
						{
							OFFSET 0.000000 -9.643799 2.679100
							CHANNELS 3 Xrotation Yrotation Zrotation
							End Site
							{
								OFFSET 0.000000 10.009018 0.000000
							}
						}
					}
				}
				JOINT RHoodieString
				{
					OFFSET -5.250500 16.397697 3.089900
					CHANNELS 3 Xrotation Yrotation Zrotation
					JOINT RHoodieString1
					{
						OFFSET -0.257700 -6.364304 3.694600
						CHANNELS 3 Xrotation Yrotation Zrotation
						JOINT RHoodieString2
						{
							OFFSET 0.000000 -9.643799 2.679100
							CHANNELS 3 Xrotation Yrotation Zrotation
							End Site
							{
								OFFSET 0.000000 10.009018 0.000000
							}
						}
					}
				}
			}
			JOINT LBackpack_Strap
			{
				OFFSET 15.223200 -7.719803 -6.610900
				CHANNELS 3 Xrotation Yrotation Zrotation
				End Site
				{
					OFFSET 0.000000 16.040596 0.000000
				}
			}
			JOINT RBackpack_Strap
			{
				OFFSET -15.223000 -7.719803 -6.610900
				CHANNELS 3 Xrotation Yrotation Zrotation
				End Site
				{
					OFFSET 0.000000 16.040596 0.000000
				}
			}
		}
	}
	JOINT BoyFacialAnim_Joint
	{
		OFFSET 1.000000 -82.208099 -1.550900
		CHANNELS 3 Xrotation Yrotation Zrotation
		End Site
		{
			OFFSET 0.000000 30.012791 0.000000
		}
	}
}
MOTION
Frames: 4
Frame Time: 0.033333
0.031017 78.815407 0.065821 -21.170371 -55.784016 -16.015527 -0.000000 -0.000001 -0.000000 -26.185492 3.190971 9.407644 67.414951 -1.836771 4.405029 9.387655 0.063779 -3.378979 -0.000001 0.000003 -0.000002 -0.000001 0.000003 -0.000003 -0.000000 0.000001 -0.000001 -10.216576 -27.067915 -8.444711 39.657946 9.811437 -3.187674 -21.641991 -21.971790 -4.101677 -0.000000 -0.000000 -0.000000 -0.000000 -0.000000 -0.000000 -0.000001 -0.000001 0.000000 21.504115 10.388258 0.840519 1.620196 0.233569 -7.464130 10.840940 -4.182635 -2.116168 0.344153 7.460475 0.875100 -7.055121 21.656595 11.877580 0.000002 0.000000 -0.000000 0.000002 0.000000 -0.000000 0.000002 0.000000 -0.000000 -37.581443 -4.847300 1.554885 -41.286345 -2.740035 -56.843877 0.000144 -68.267447 0.000144 -114.770619 0.593746 39.955469 4.709221 9.560352 3.111991 19.473195 -1.474904 7.636914 -0.000002 -0.000000 0.000002 -0.212809 3.933732 -36.747118 2.942156 5.078911 -60.144576 -0.000003 0.000001 -0.000003 0.405915 5.507037 -52.453162 3.387144 5.308635 -65.057436 0.000003 0.000000 0.000002 -0.074380 5.736781 -61.061420 4.055024 5.569512 -72.094907 -0.000001 -0.000001 0.000003 -6.565567 4.545134 -72.425229 3.299636 5.267213 -64.107835 0.000002 0.000002 -0.000000 0.000001 -0.000003 0.000003 -41.191498 -8.549920 -9.960726 -56.321422 56.912486 108.760121 -0.003884 91.908897 0.004014 -59.294163 -14.814598 -22.806874 8.377123 -4.904142 11.022000 21.620207 -18.183874 -18.379194 0.000003 0.000001 0.000001 -0.920050 1.683577 12.434988 0.748113 -2.533480 32.898286 -0.000000 -0.000001 0.000009 3.413055 -7.186250 51.650246 6.296818 -4.359574 110.634653 0.000001 0.000000 0.000005 -3.349057 -2.600450 57.010554 5.440878 -4.590907 99.698168 0.000000 0.000000 0.000000 -3.996445 -3.303937 64.593843 4.058862 -4.618664 82.610503 0.000000 -0.000000 0.000004 0.000001 0.000001 0.000001 0.000001 -0.000000 -0.000000 0.000001 -0.000000 -0.000000 0.000001 -0.000000 -0.000000 0.000001 -0.000000 -0.000000 0.000001 -0.000000 0.000000 0.000001 -0.000000 -0.000000 0.000001 -0.000000 -0.000000 0.000001 -0.000000 0.000000 0.000001 -0.000000 -0.000000 0.000000 -0.000003 0.000000 0.000000 -0.000003 0.000000 -0.000000 -0.000001 -0.000000 
-1.542704 79.047806 -0.149459 -20.798199 -56.029141 -15.610974 -0.000000 0.000003 0.000000 -28.415120 4.868426 8.664898 64.436653 -1.730535 2.740074 6.881398 2.672012 -3.892077 -0.000001 -0.000003 0.000002 -0.000001 -0.000003 0.000000 0.000000 -0.000001 0.000001 -8.093130 -27.306666 -7.300101 37.772647 9.708853 -2.958284 -21.945762 -21.801182 -4.419397 0.000000 0.000001 0.000000 0.000000 0.000001 0.000000 0.000004 -0.000002 0.000000 21.535160 10.546751 0.791029 1.651707 0.246343 -7.464190 10.872900 -4.171719 -2.116301 0.284015 7.460449 0.821376 -7.154138 21.571996 11.839829 0.000001 -0.000000 0.000001 0.000001 -0.000000 0.000001 0.000001 -0.000000 0.000001 -37.599187 -4.929684 1.478308 -41.456984 -2.695080 -56.792914 0.000121 -68.167993 0.000117 -114.944475 0.746902 39.770829 4.720516 9.563623 3.023582 19.458866 -1.507213 7.634507 -0.000001 -0.000001 -0.000001 -0.222628 3.918661 -36.720822 2.942137 5.078920 -60.144651 -0.000000 -0.000000 -0.000004 0.405336 5.506023 -52.442510 3.382970 5.306669 -65.012268 0.000002 -0.000000 0.000000 -0.087366 5.728049 -61.039802 4.056958 5.570128 -72.114886 0.000001 -0.000000 -0.000000 -6.565527 4.522235 -72.315468 3.300907 5.267844 -64.121707 -0.000000 -0.000001 -0.000002 -0.000000 -0.000000 0.000000 -41.198291 -8.511556 -10.004924 -56.512183 56.866495 108.889082 0.005686 91.978667 -0.005619 -59.017896 -14.896445 -23.075403 8.377163 -4.904190 11.022031 21.618080 -18.197518 -18.381429 -0.000002 -0.000000 -0.000001 -0.919779 1.684094 12.431044 0.748114 -2.533479 32.898289 -0.000001 -0.000001 0.000003 3.403994 -7.183813 51.546003 6.296816 -4.359582 110.634660 0.000000 0.000001 -0.000002 -3.349186 -2.600334 57.010558 5.442464 -4.590621 99.718303 0.000001 0.000001 0.000004 -3.996235 -3.304025 64.593850 4.058838 -4.618684 82.610530 -0.000001 -0.000001 0.000002 0.000001 -0.000001 -0.000001 -0.000000 -0.000001 0.000001 -0.000000 -0.000001 0.000001 -0.000000 -0.000001 0.000001 -0.000000 -0.000001 0.000001 -0.000000 -0.000001 0.000000 -0.000000 -0.000001 -0.000000 -0.000000 -0.000001 0.000001 -0.000000 -0.000001 0.000000 -0.000000 -0.000001 -0.000000 -0.000000 0.000000 0.000000 -0.000000 0.000000 0.000000 -0.000000 0.000003 0.000000 
-3.106004 79.225540 -0.273109 -20.476660 -56.269803 -15.350010 0.000000 0.000000 -0.000000 -30.208564 6.705310 7.631445 60.357412 -0.967657 1.174884 4.345473 2.823461 -3.010384 -0.000000 0.000000 -0.000002 -0.000000 0.000000 -0.000001 0.000001 -0.000005 0.000002 -5.998665 -27.603692 -6.134755 36.157164 9.353603 -2.811411 -22.271717 -21.327920 -4.563877 0.000000 -0.000002 0.000000 0.000000 -0.000002 0.000000 -0.000002 0.000000 -0.000000 21.508768 10.764628 0.881677 1.643064 0.265620 -7.462796 10.865345 -4.153715 -2.116656 0.246737 7.460332 0.778072 -7.090125 21.536486 11.717954 0.000001 -0.000001 0.000001 0.000001 -0.000001 0.000001 0.000001 -0.000001 0.000001 -37.598689 -4.978646 1.584612 -41.507189 -2.593443 -56.857848 0.000054 -68.099622 0.000057 -115.155350 0.873613 39.539309 4.729699 9.587865 3.020691 19.461921 -1.488652 7.636509 0.000003 -0.000002 -0.000002 -0.217144 3.928131 -36.750366 2.940848 5.078177 -60.130028 -0.000001 -0.000001 -0.000002 0.412004 5.513479 -52.485783 3.388062 5.309057 -65.067340 0.000006 0.000000 0.000000 -0.041304 5.757656 -61.098405 4.056799 5.570089 -72.113226 -0.000001 0.000001 -0.000000 -6.552945 4.530614 -72.336081 3.302183 5.268463 -64.135661 -0.000001 -0.000000 0.000001 -0.000003 -0.000002 0.000000 -41.203304 -8.483289 -10.037421 -56.655552 56.867008 109.044435 0.009498 92.078702 -0.009533 -58.743998 -14.943054 -23.372791 8.377171 -4.904260 11.022085 21.618964 -18.204679 -18.382180 -0.000003 -0.000000 -0.000002 -0.919123 1.685150 12.421166 0.748115 -2.533481 32.898289 -0.000001 -0.000001 0.000002 3.396568 -7.181710 51.462658 6.297787 -4.359224 110.647466 0.000001 0.000001 -0.000002 -3.349260 -2.602321 57.025099 5.444482 -4.590290 99.743431 -0.000001 0.000001 0.000001 -3.995720 -3.306939 64.612169 4.059926 -4.618819 82.623938 0.000001 -0.000000 -0.000003 -0.000001 -0.000002 -0.000001 -0.000000 -0.000002 0.000002 -0.000000 -0.000002 0.000002 -0.000000 -0.000002 0.000002 -0.000000 -0.000002 0.000002 -0.000000 -0.000002 0.000001 -0.000000 -0.000001 -0.000000 -0.000000 -0.000002 0.000002 -0.000000 -0.000002 0.000001 -0.000000 -0.000001 -0.000000 0.000001 0.000001 -0.000000 0.000001 0.000001 -0.000000 0.000000 0.000000 -0.000000 
-4.640571 79.367416 -0.324264 -20.207439 -56.661098 -15.193911 -0.000000 0.000002 -0.000000 -31.171771 8.827888 6.546931 54.967269 0.019570 -0.390752 1.341188 1.342628 -1.766349 0.000000 -0.000001 -0.000000 0.000000 -0.000001 -0.000000 -0.000000 -0.000002 0.000001 -4.026604 -27.973035 -5.046104 34.779535 8.846478 -2.776959 -22.617719 -20.463300 -4.592007 0.000000 -0.000001 0.000000 0.000000 -0.000001 0.000000 0.000001 0.000000 -0.000000 21.327944 11.051967 1.024854 1.660389 0.294410 -7.419419 10.886601 -4.118217 -2.077546 0.251787 7.496878 0.660868 -6.907261 21.539738 11.598728 0.000000 -0.000002 -0.000001 0.000000 -0.000002 -0.000001 0.000000 -0.000002 -0.000001 -37.595537 -4.966163 1.730992 -41.579729 -2.417889 -57.089699 0.000161 -68.002688 0.000171 -115.231097 1.096651 39.305976 4.739139 9.628199 3.109031 19.469526 -1.455276 7.626363 -0.000001 0.000005 0.000000 -0.184628 3.978949 -36.854202 2.939777 5.077569 -60.117850 0.000001 0.000000 -0.000002 0.432688 5.534540 -52.583915 3.397200 5.313256 -65.166063 0.000002 0.000000 0.000000 0.042269 5.812517 -61.226362 4.058424 5.570616 -72.129933 0.000004 -0.000001 -0.000002 -6.535308 4.559469 -72.447400 3.302942 5.268825 -64.143830 0.000002 0.000003 0.000004 0.000000 -0.000001 0.000000 -41.210944 -8.458740 -10.064437 -56.746393 56.908101 109.214274 -0.006088 92.189631 0.006100 -58.454890 -14.951465 -23.689302 8.372230 -4.892237 11.013826 21.621295 -18.211212 -18.382513 -0.000003 0.000001 0.000001 -0.919455 1.684865 12.425451 0.748114 -2.533480 32.898293 0.000000 -0.000000 0.000005 3.391968 -7.180239 51.414242 6.299641 -4.358511 110.671754 0.000001 0.000001 -0.000000 -3.349160 -2.608438 57.069277 5.447040 -4.589838 99.775499 -0.000000 -0.000001 0.000007 -3.994598 -3.314950 64.664003 4.062157 -4.619102 82.651463 -0.000000 -0.000000 0.000000 0.000001 -0.000000 -0.000001 0.000001 0.000002 -0.000001 0.000001 0.000002 -0.000001 0.000001 0.000002 -0.000001 0.000001 0.000002 -0.000001 0.000001 0.000002 -0.000001 0.000001 -0.000003 0.000001 0.000001 0.000002 -0.000001 0.000001 0.000002 -0.000001 0.000001 -0.000003 0.000001 0.000000 0.000001 -0.000000 0.000000 0.000001 -0.000000 -0.000000 0.000002 -0.000000 
